<mxfile host="app.diagrams.net" agent="Mozilla/5.0 (Windows NT 10.0; Win64; x64) AppleWebKit/537.36 (KHTML, like Gecko) Chrome/130.0.0.0 Safari/537.36" version="24.8.1">
  <diagram id="C5RBs43oDa-KdzZeNtuy" name="Page-1">
    <mxGraphModel dx="2391" dy="1054" grid="1" gridSize="10" guides="1" tooltips="1" connect="1" arrows="1" fold="1" page="1" pageScale="1" pageWidth="2000" pageHeight="2000" math="0" shadow="0">
      <root>
        <mxCell id="WIyWlLk6GJQsqaUBKTNV-0" />
        <mxCell id="WIyWlLk6GJQsqaUBKTNV-1" parent="WIyWlLk6GJQsqaUBKTNV-0" />
        <mxCell id="Gt_5XBKJtia0HL-Je6cC-203" value="" style="rounded=0;whiteSpace=wrap;html=1;labelBackgroundColor=none;fontSize=15;strokeColor=#4A4A4A;strokeWidth=6;fillColor=#d5e8d4;gradientDirection=radial;" parent="WIyWlLk6GJQsqaUBKTNV-1" vertex="1">
          <mxGeometry x="530" y="70" width="1470" height="550" as="geometry" />
        </mxCell>
        <mxCell id="Gt_5XBKJtia0HL-Je6cC-202" value="" style="rounded=0;whiteSpace=wrap;html=1;labelBackgroundColor=none;fontSize=15;fontColor=none;strokeColor=#6B6B6B;strokeWidth=6;fillColor=#FFE1B5;gradientColor=none;gradientDirection=radial;" parent="WIyWlLk6GJQsqaUBKTNV-1" vertex="1">
          <mxGeometry x="110" y="620" width="1890" height="440" as="geometry" />
        </mxCell>
        <mxCell id="Gt_5XBKJtia0HL-Je6cC-195" value="" style="rounded=0;whiteSpace=wrap;html=1;labelBackgroundColor=none;fontSize=15;fontColor=none;strokeColor=#6B6B6B;fillColor=#D2DEF2;strokeWidth=6;gradientDirection=radial;" parent="WIyWlLk6GJQsqaUBKTNV-1" vertex="1">
          <mxGeometry x="110" y="70" width="420" height="550" as="geometry" />
        </mxCell>
        <mxCell id="Gt_5XBKJtia0HL-Je6cC-2" style="edgeStyle=orthogonalEdgeStyle;orthogonalLoop=1;jettySize=auto;html=1;exitX=0.5;exitY=1;exitDx=0;exitDy=0;entryX=0.5;entryY=0;entryDx=0;entryDy=0;fontSize=15;" parent="WIyWlLk6GJQsqaUBKTNV-1" source="WIyWlLk6GJQsqaUBKTNV-3" target="WIyWlLk6GJQsqaUBKTNV-6" edge="1">
          <mxGeometry relative="1" as="geometry" />
        </mxCell>
        <mxCell id="WIyWlLk6GJQsqaUBKTNV-3" value="Slot triggered" style="whiteSpace=wrap;html=1;fontSize=15;glass=0;strokeWidth=1;shadow=0;fillColor=none;" parent="WIyWlLk6GJQsqaUBKTNV-1" vertex="1">
          <mxGeometry x="160" y="310" width="120" height="40" as="geometry" />
        </mxCell>
        <mxCell id="Gt_5XBKJtia0HL-Je6cC-5" style="edgeStyle=orthogonalEdgeStyle;orthogonalLoop=1;jettySize=auto;html=1;exitX=1;exitY=0.5;exitDx=0;exitDy=0;entryX=0.5;entryY=1;entryDx=0;entryDy=0;fontSize=15;" parent="WIyWlLk6GJQsqaUBKTNV-1" source="WIyWlLk6GJQsqaUBKTNV-6" target="Gt_5XBKJtia0HL-Je6cC-4" edge="1">
          <mxGeometry relative="1" as="geometry" />
        </mxCell>
        <mxCell id="Gt_5XBKJtia0HL-Je6cC-6" value="GUI update" style="edgeLabel;html=1;align=center;verticalAlign=middle;resizable=0;points=[];fontSize=15;labelBackgroundColor=none;" parent="Gt_5XBKJtia0HL-Je6cC-5" vertex="1" connectable="0">
          <mxGeometry x="0.5598" y="1" relative="1" as="geometry">
            <mxPoint x="-49" y="38" as="offset" />
          </mxGeometry>
        </mxCell>
        <mxCell id="Gt_5XBKJtia0HL-Je6cC-132" value="Get / Set" style="edgeStyle=orthogonalEdgeStyle;orthogonalLoop=1;jettySize=auto;html=1;exitX=0.5;exitY=1;exitDx=0;exitDy=0;entryX=0.5;entryY=0;entryDx=0;entryDy=0;fontSize=15;labelBackgroundColor=none;" parent="WIyWlLk6GJQsqaUBKTNV-1" source="WIyWlLk6GJQsqaUBKTNV-6" target="Gt_5XBKJtia0HL-Je6cC-121" edge="1">
          <mxGeometry x="0.4118" y="30" relative="1" as="geometry">
            <mxPoint as="offset" />
          </mxGeometry>
        </mxCell>
        <mxCell id="WIyWlLk6GJQsqaUBKTNV-6" value="&lt;div style=&quot;font-size: 15px;&quot;&gt;Slot processing&lt;br style=&quot;font-size: 15px;&quot;&gt;&lt;/div&gt;" style="rhombus;whiteSpace=wrap;html=1;shadow=0;fontFamily=Helvetica;fontSize=15;align=center;strokeWidth=1;spacing=6;spacingTop=-4;fillColor=none;" parent="WIyWlLk6GJQsqaUBKTNV-1" vertex="1">
          <mxGeometry x="140" y="430" width="160" height="150" as="geometry" />
        </mxCell>
        <mxCell id="Gt_5XBKJtia0HL-Je6cC-1" value="&lt;div style=&quot;font-size: 15px&quot;&gt;&lt;span style=&quot;font-size: 15px&quot;&gt;GUI event&lt;/span&gt;&lt;/div&gt;" style="edgeStyle=orthogonalEdgeStyle;orthogonalLoop=1;jettySize=auto;html=1;exitX=0;exitY=0.5;exitDx=0;exitDy=0;entryX=0.5;entryY=0;entryDx=0;entryDy=0;fontSize=15;labelBackgroundColor=none;" parent="WIyWlLk6GJQsqaUBKTNV-1" source="Gt_5XBKJtia0HL-Je6cC-4" target="WIyWlLk6GJQsqaUBKTNV-3" edge="1">
          <mxGeometry x="0.2308" y="-50" relative="1" as="geometry">
            <mxPoint x="220" y="270" as="sourcePoint" />
            <mxPoint as="offset" />
          </mxGeometry>
        </mxCell>
        <mxCell id="Gt_5XBKJtia0HL-Je6cC-4" value="&lt;div style=&quot;font-size: 15px;&quot;&gt;GUI&lt;/div&gt;" style="ellipse;whiteSpace=wrap;html=1;aspect=fixed;fontSize=15;fillColor=none;" parent="WIyWlLk6GJQsqaUBKTNV-1" vertex="1">
          <mxGeometry x="340" y="90" width="160" height="160" as="geometry" />
        </mxCell>
        <mxCell id="Gt_5XBKJtia0HL-Je6cC-136" style="edgeStyle=orthogonalEdgeStyle;orthogonalLoop=1;jettySize=auto;html=1;entryX=0;entryY=0.5;entryDx=0;entryDy=0;labelBackgroundColor=none;fontSize=15;fontColor=none;" parent="WIyWlLk6GJQsqaUBKTNV-1" source="Gt_5XBKJtia0HL-Je6cC-121" target="Gt_5XBKJtia0HL-Je6cC-135" edge="1">
          <mxGeometry relative="1" as="geometry" />
        </mxCell>
        <mxCell id="Gt_5XBKJtia0HL-Je6cC-137" value="Init / Stop" style="edgeLabel;html=1;align=center;verticalAlign=middle;resizable=0;points=[];fontSize=15;fontColor=none;labelBackgroundColor=none;" parent="Gt_5XBKJtia0HL-Je6cC-136" vertex="1" connectable="0">
          <mxGeometry x="-0.2305" y="-2" relative="1" as="geometry">
            <mxPoint y="13" as="offset" />
          </mxGeometry>
        </mxCell>
        <mxCell id="Gt_5XBKJtia0HL-Je6cC-158" style="edgeStyle=orthogonalEdgeStyle;orthogonalLoop=1;jettySize=auto;html=1;exitX=1;exitY=0;exitDx=0;exitDy=0;entryX=0;entryY=0.5;entryDx=0;entryDy=0;labelBackgroundColor=none;fontSize=15;fontColor=none;" parent="WIyWlLk6GJQsqaUBKTNV-1" source="Gt_5XBKJtia0HL-Je6cC-121" target="Gt_5XBKJtia0HL-Je6cC-128" edge="1">
          <mxGeometry relative="1" as="geometry">
            <Array as="points">
              <mxPoint x="550" y="698" />
              <mxPoint x="550" y="245" />
            </Array>
          </mxGeometry>
        </mxCell>
        <mxCell id="Gt_5XBKJtia0HL-Je6cC-159" value="&lt;div style=&quot;font-size: 15px&quot;&gt;Get / Set&lt;/div&gt;" style="edgeLabel;html=1;align=center;verticalAlign=middle;resizable=0;points=[];fontSize=15;fontColor=none;labelBackgroundColor=none;" parent="Gt_5XBKJtia0HL-Je6cC-158" vertex="1" connectable="0">
          <mxGeometry x="-0.1313" y="1" relative="1" as="geometry">
            <mxPoint x="41" y="-35" as="offset" />
          </mxGeometry>
        </mxCell>
        <mxCell id="Gt_5XBKJtia0HL-Je6cC-121" value="Backend API" style="rhombus;whiteSpace=wrap;html=1;shadow=0;fontFamily=Helvetica;fontSize=15;align=center;strokeWidth=1;spacing=6;spacingTop=-4;fontColor=default;fillColor=none;" parent="WIyWlLk6GJQsqaUBKTNV-1" vertex="1">
          <mxGeometry x="140" y="665" width="160" height="150" as="geometry" />
        </mxCell>
        <mxCell id="Gt_5XBKJtia0HL-Je6cC-128" value="&lt;div style=&quot;font-size: 15px;&quot;&gt;Holovibes Settings&lt;/div&gt;" style="whiteSpace=wrap;html=1;fontSize=15;fillColor=none;" parent="WIyWlLk6GJQsqaUBKTNV-1" vertex="1">
          <mxGeometry x="880" y="200" width="180" height="90" as="geometry" />
        </mxCell>
        <mxCell id="Gt_5XBKJtia0HL-Je6cC-145" style="edgeStyle=orthogonalEdgeStyle;orthogonalLoop=1;jettySize=auto;html=1;labelBackgroundColor=none;fontSize=15;fontColor=none;exitX=0.5;exitY=0;exitDx=0;exitDy=0;entryX=0.5;entryY=1;entryDx=0;entryDy=0;" parent="WIyWlLk6GJQsqaUBKTNV-1" source="Gt_5XBKJtia0HL-Je6cC-135" target="Gt_5XBKJtia0HL-Je6cC-144" edge="1">
          <mxGeometry relative="1" as="geometry">
            <Array as="points" />
          </mxGeometry>
        </mxCell>
        <mxCell id="Gt_5XBKJtia0HL-Je6cC-146" value="Start / Stop" style="edgeLabel;html=1;align=center;verticalAlign=middle;resizable=0;points=[];fontSize=15;fontColor=none;labelBackgroundColor=none;" parent="Gt_5XBKJtia0HL-Je6cC-145" vertex="1" connectable="0">
          <mxGeometry x="-0.322" y="1" relative="1" as="geometry">
            <mxPoint x="41" y="18" as="offset" />
          </mxGeometry>
        </mxCell>
        <mxCell id="Gt_5XBKJtia0HL-Je6cC-150" value="Start / Stop" style="edgeStyle=orthogonalEdgeStyle;orthogonalLoop=1;jettySize=auto;html=1;entryX=0.5;entryY=0;entryDx=0;entryDy=0;labelBackgroundColor=none;fontSize=15;fontColor=none;" parent="WIyWlLk6GJQsqaUBKTNV-1" source="Gt_5XBKJtia0HL-Je6cC-135" target="Gt_5XBKJtia0HL-Je6cC-142" edge="1">
          <mxGeometry x="0.2124" y="-20" relative="1" as="geometry">
            <mxPoint as="offset" />
          </mxGeometry>
        </mxCell>
        <mxCell id="Gt_5XBKJtia0HL-Je6cC-168" style="edgeStyle=orthogonalEdgeStyle;orthogonalLoop=1;jettySize=auto;html=1;entryX=0.5;entryY=1;entryDx=0;entryDy=0;labelBackgroundColor=none;fontSize=15;fontColor=none;" parent="WIyWlLk6GJQsqaUBKTNV-1" source="Gt_5XBKJtia0HL-Je6cC-135" target="Gt_5XBKJtia0HL-Je6cC-164" edge="1">
          <mxGeometry relative="1" as="geometry" />
        </mxCell>
        <mxCell id="Gt_5XBKJtia0HL-Je6cC-169" style="edgeStyle=orthogonalEdgeStyle;orthogonalLoop=1;jettySize=auto;html=1;entryX=0.5;entryY=0;entryDx=0;entryDy=0;labelBackgroundColor=none;fontSize=15;fontColor=none;" parent="WIyWlLk6GJQsqaUBKTNV-1" source="Gt_5XBKJtia0HL-Je6cC-135" target="Gt_5XBKJtia0HL-Je6cC-167" edge="1">
          <mxGeometry relative="1" as="geometry" />
        </mxCell>
        <mxCell id="Gt_5XBKJtia0HL-Je6cC-135" value="Holovibes" style="rhombus;whiteSpace=wrap;html=1;shadow=0;fontFamily=Helvetica;fontSize=15;align=center;strokeWidth=1;spacing=6;spacingTop=-4;fillColor=none;" parent="WIyWlLk6GJQsqaUBKTNV-1" vertex="1">
          <mxGeometry x="540" y="880" width="160" height="150" as="geometry" />
        </mxCell>
        <mxCell id="Gt_5XBKJtia0HL-Je6cC-138" value="ThreadWorkerController" style="swimlane;labelBackgroundColor=none;fontSize=15;fontColor=none;startSize=20;fillColor=none;" parent="WIyWlLk6GJQsqaUBKTNV-1" vertex="1">
          <mxGeometry x="1410" y="660" width="160" height="160" as="geometry">
            <mxRectangle x="740" y="510" width="190" height="23" as="alternateBounds" />
          </mxGeometry>
        </mxCell>
        <mxCell id="Gt_5XBKJtia0HL-Je6cC-142" value="&lt;div style=&quot;font-size: 15px;&quot;&gt;ComputeWorker&lt;/div&gt;&lt;div style=&quot;font-size: 15px;&quot;&gt;Pipe&lt;br style=&quot;font-size: 15px;&quot;&gt;&lt;/div&gt;" style="rhombus;whiteSpace=wrap;html=1;shadow=0;fontFamily=Helvetica;fontSize=15;align=center;strokeWidth=1;spacing=6;spacingTop=-4;direction=west;fillColor=none;" parent="Gt_5XBKJtia0HL-Je6cC-138" vertex="1">
          <mxGeometry y="20" width="160" height="140" as="geometry" />
        </mxCell>
        <mxCell id="Gt_5XBKJtia0HL-Je6cC-143" value="ThreadWorkerController" style="swimlane;labelBackgroundColor=none;fontSize=15;fontColor=none;startSize=20;fillColor=none;" parent="WIyWlLk6GJQsqaUBKTNV-1" vertex="1">
          <mxGeometry x="700" y="650" width="160" height="160" as="geometry">
            <mxRectangle x="740" y="510" width="190" height="23" as="alternateBounds" />
          </mxGeometry>
        </mxCell>
        <mxCell id="Gt_5XBKJtia0HL-Je6cC-144" value="InformationWorker" style="rhombus;whiteSpace=wrap;html=1;shadow=0;fontFamily=Helvetica;fontSize=15;align=center;strokeWidth=1;spacing=6;spacingTop=-4;fillColor=none;" parent="Gt_5XBKJtia0HL-Je6cC-143" vertex="1">
          <mxGeometry y="20" width="160" height="140" as="geometry" />
        </mxCell>
        <mxCell id="Gt_5XBKJtia0HL-Je6cC-161" style="edgeStyle=orthogonalEdgeStyle;orthogonalLoop=1;jettySize=auto;html=1;entryX=0.5;entryY=1;entryDx=0;entryDy=0;labelBackgroundColor=none;fontSize=15;fontColor=none;" parent="WIyWlLk6GJQsqaUBKTNV-1" source="Gt_5XBKJtia0HL-Je6cC-144" target="Gt_5XBKJtia0HL-Je6cC-128" edge="1">
          <mxGeometry relative="1" as="geometry">
            <Array as="points">
              <mxPoint x="970" y="490" />
            </Array>
          </mxGeometry>
        </mxCell>
        <mxCell id="Gt_5XBKJtia0HL-Je6cC-162" value="&lt;div style=&quot;font-size: 15px;&quot;&gt;Synchronize&lt;/div&gt;" style="edgeLabel;html=1;align=center;verticalAlign=middle;resizable=0;points=[];fontSize=15;fontColor=none;labelBackgroundColor=none;" parent="Gt_5XBKJtia0HL-Je6cC-161" vertex="1" connectable="0">
          <mxGeometry x="0.158" y="-5" relative="1" as="geometry">
            <mxPoint x="-50" y="-35" as="offset" />
          </mxGeometry>
        </mxCell>
        <mxCell id="cD8BjpWUCoZ1C0RBfRYy-4" style="edgeStyle=orthogonalEdgeStyle;rounded=0;orthogonalLoop=1;jettySize=auto;html=1;entryX=0.75;entryY=1;entryDx=0;entryDy=0;" parent="WIyWlLk6GJQsqaUBKTNV-1" source="Gt_5XBKJtia0HL-Je6cC-164" target="Gt_5XBKJtia0HL-Je6cC-128" edge="1">
          <mxGeometry relative="1" as="geometry" />
        </mxCell>
        <mxCell id="Gt_5XBKJtia0HL-Je6cC-164" value="ThreadWorkerController" style="swimlane;labelBackgroundColor=none;fontSize=15;fontColor=none;startSize=20;fillColor=none;" parent="WIyWlLk6GJQsqaUBKTNV-1" vertex="1">
          <mxGeometry x="1020" y="660" width="160" height="160" as="geometry">
            <mxRectangle x="740" y="510" width="190" height="23" as="alternateBounds" />
          </mxGeometry>
        </mxCell>
        <mxCell id="Gt_5XBKJtia0HL-Je6cC-165" value="&lt;div style=&quot;font-size: 15px;&quot;&gt;FrameReadWorker&lt;/div&gt;&lt;div style=&quot;font-size: 15px;&quot;&gt;(File - Camera)&lt;br style=&quot;font-size: 15px;&quot;&gt;&lt;/div&gt;" style="rhombus;whiteSpace=wrap;html=1;shadow=0;fontFamily=Helvetica;fontSize=15;align=center;strokeWidth=1;spacing=6;spacingTop=-4;direction=west;fillColor=none;" parent="Gt_5XBKJtia0HL-Je6cC-164" vertex="1">
          <mxGeometry y="20" width="160" height="140" as="geometry" />
        </mxCell>
        <mxCell id="cD8BjpWUCoZ1C0RBfRYy-8" style="edgeStyle=orthogonalEdgeStyle;rounded=0;orthogonalLoop=1;jettySize=auto;html=1;entryX=1;entryY=0.25;entryDx=0;entryDy=0;fontSize=15;" parent="WIyWlLk6GJQsqaUBKTNV-1" source="Gt_5XBKJtia0HL-Je6cC-166" target="Gt_5XBKJtia0HL-Je6cC-128" edge="1">
          <mxGeometry relative="1" as="geometry">
            <Array as="points">
              <mxPoint x="1900" y="222" />
            </Array>
          </mxGeometry>
        </mxCell>
        <mxCell id="Gt_5XBKJtia0HL-Je6cC-166" value="ThreadWorkerController" style="swimlane;labelBackgroundColor=none;fontSize=15;fontColor=none;startSize=20;fillColor=none;" parent="WIyWlLk6GJQsqaUBKTNV-1" vertex="1">
          <mxGeometry x="1820" y="660" width="160" height="160" as="geometry">
            <mxRectangle x="740" y="510" width="190" height="23" as="alternateBounds" />
          </mxGeometry>
        </mxCell>
        <mxCell id="Gt_5XBKJtia0HL-Je6cC-167" value="&lt;div style=&quot;font-size: 15px;&quot;&gt;OutputWorker&lt;/div&gt;(Display - Record)" style="rhombus;whiteSpace=wrap;html=1;shadow=0;fontFamily=Helvetica;fontSize=15;align=center;strokeWidth=1;spacing=6;spacingTop=-4;direction=west;fillColor=none;" parent="Gt_5XBKJtia0HL-Je6cC-166" vertex="1">
          <mxGeometry y="20" width="160" height="140" as="geometry" />
        </mxCell>
        <mxCell id="Gt_5XBKJtia0HL-Je6cC-180" value="InputQueue" style="strokeWidth=2;html=1;shape=mxgraph.flowchart.direct_data;whiteSpace=wrap;labelBackgroundColor=none;fontSize=15;fontColor=none;strokeColor=#6B6B6B;fillColor=none;" parent="WIyWlLk6GJQsqaUBKTNV-1" vertex="1">
          <mxGeometry x="1210" y="730" width="170" height="50" as="geometry" />
        </mxCell>
        <mxCell id="Gt_5XBKJtia0HL-Je6cC-181" value="RecordQueue" style="strokeWidth=2;html=1;shape=mxgraph.flowchart.direct_data;whiteSpace=wrap;labelBackgroundColor=none;fontSize=15;fontColor=none;strokeColor=#6B6B6B;fillColor=none;" parent="WIyWlLk6GJQsqaUBKTNV-1" vertex="1">
          <mxGeometry x="1620" y="730" width="170" height="50" as="geometry" />
        </mxCell>
        <mxCell id="cD8BjpWUCoZ1C0RBfRYy-11" style="edgeStyle=orthogonalEdgeStyle;rounded=0;orthogonalLoop=1;jettySize=auto;html=1;entryX=1;entryY=0.75;entryDx=0;entryDy=0;fontSize=15;exitX=0.5;exitY=0;exitDx=0;exitDy=0;" parent="WIyWlLk6GJQsqaUBKTNV-1" source="Gt_5XBKJtia0HL-Je6cC-183" target="Gt_5XBKJtia0HL-Je6cC-128" edge="1">
          <mxGeometry relative="1" as="geometry" />
        </mxCell>
        <mxCell id="Gt_5XBKJtia0HL-Je6cC-183" value="DelayedSettings" style="whiteSpace=wrap;html=1;fontSize=15;fillColor=none;" parent="WIyWlLk6GJQsqaUBKTNV-1" vertex="1">
          <mxGeometry x="1425" y="510" width="130" height="70" as="geometry" />
        </mxCell>
        <mxCell id="Gt_5XBKJtia0HL-Je6cC-192" value="Get" style="endArrow=none;html=1;rounded=0;labelBackgroundColor=none;fontSize=15;fontColor=none;edgeStyle=orthogonalEdgeStyle;entryX=0.5;entryY=1;entryDx=0;entryDy=0;exitX=0.5;exitY=0;exitDx=0;exitDy=0;" parent="WIyWlLk6GJQsqaUBKTNV-1" source="Gt_5XBKJtia0HL-Je6cC-138" target="Gt_5XBKJtia0HL-Je6cC-183" edge="1">
          <mxGeometry x="-0.5" y="-30" width="50" height="50" relative="1" as="geometry">
            <mxPoint x="1110" y="670" as="sourcePoint" />
            <mxPoint x="1110" y="600" as="targetPoint" />
            <mxPoint as="offset" />
          </mxGeometry>
        </mxCell>
        <mxCell id="Gt_5XBKJtia0HL-Je6cC-205" value="&lt;font style=&quot;font-size: 20px&quot;&gt;&lt;b&gt;Frontend&lt;/b&gt;&lt;/font&gt;" style="text;html=1;strokeColor=none;fillColor=none;align=center;verticalAlign=middle;whiteSpace=wrap;rounded=0;labelBackgroundColor=none;fontSize=14;fontColor=default;" parent="WIyWlLk6GJQsqaUBKTNV-1" vertex="1">
          <mxGeometry x="130" y="70" width="90" height="50" as="geometry" />
        </mxCell>
        <mxCell id="Gt_5XBKJtia0HL-Je6cC-207" value="&lt;font style=&quot;font-size: 20px&quot;&gt;&lt;b&gt;State&lt;/b&gt;&lt;/font&gt;" style="text;html=1;strokeColor=none;fillColor=none;align=center;verticalAlign=middle;whiteSpace=wrap;rounded=0;labelBackgroundColor=none;fontSize=14;fontColor=default;" parent="WIyWlLk6GJQsqaUBKTNV-1" vertex="1">
          <mxGeometry x="530" y="70" width="90" height="50" as="geometry" />
        </mxCell>
        <mxCell id="Gt_5XBKJtia0HL-Je6cC-208" value="&lt;font style=&quot;font-size: 20px&quot;&gt;&lt;b&gt;&lt;font style=&quot;font-size: 20px&quot;&gt;Backend&lt;/font&gt;&lt;/b&gt;&lt;/font&gt;" style="text;html=1;strokeColor=none;fillColor=none;align=center;verticalAlign=middle;whiteSpace=wrap;rounded=0;labelBackgroundColor=none;fontSize=14;fontColor=default;" parent="WIyWlLk6GJQsqaUBKTNV-1" vertex="1">
          <mxGeometry x="130" y="1000" width="90" height="50" as="geometry" />
        </mxCell>
        <mxCell id="Gt_5XBKJtia0HL-Je6cC-213" style="edgeStyle=orthogonalEdgeStyle;rounded=1;orthogonalLoop=1;jettySize=auto;html=1;entryX=1;entryY=0.5;entryDx=0;entryDy=0;labelBackgroundColor=none;fontSize=20;fontColor=default;exitX=0.5;exitY=0;exitDx=0;exitDy=0;" parent="WIyWlLk6GJQsqaUBKTNV-1" source="Gt_5XBKJtia0HL-Je6cC-128" target="Gt_5XBKJtia0HL-Je6cC-4" edge="1">
          <mxGeometry relative="1" as="geometry" />
        </mxCell>
        <mxCell id="Gt_5XBKJtia0HL-Je6cC-214" value="&lt;font style=&quot;font-size: 15px&quot;&gt;Continuous update&lt;/font&gt;" style="edgeLabel;html=1;align=center;verticalAlign=middle;resizable=0;points=[];fontSize=20;fontColor=default;labelBackgroundColor=none;rotation=0;" parent="Gt_5XBKJtia0HL-Je6cC-213" vertex="1" connectable="0">
          <mxGeometry x="0.3707" relative="1" as="geometry">
            <mxPoint x="63" y="10" as="offset" />
          </mxGeometry>
        </mxCell>
        <mxCell id="cD8BjpWUCoZ1C0RBfRYy-6" value="&lt;font style=&quot;font-size: 15px&quot;&gt;Get&lt;/font&gt;" style="text;html=1;strokeColor=none;fillColor=none;align=center;verticalAlign=middle;whiteSpace=wrap;rounded=0;" parent="WIyWlLk6GJQsqaUBKTNV-1" vertex="1">
          <mxGeometry x="1030" y="440" width="60" height="30" as="geometry" />
        </mxCell>
        <mxCell id="cD8BjpWUCoZ1C0RBfRYy-9" value="&lt;font style=&quot;font-size: 15px&quot;&gt;Get&lt;/font&gt;" style="text;html=1;strokeColor=none;fillColor=none;align=center;verticalAlign=middle;whiteSpace=wrap;rounded=0;" parent="WIyWlLk6GJQsqaUBKTNV-1" vertex="1">
          <mxGeometry x="1100" y="180" width="60" height="30" as="geometry" />
        </mxCell>
        <mxCell id="cD8BjpWUCoZ1C0RBfRYy-10" value="&lt;div style=&quot;font-size: 15px;&quot;&gt;Synchronize&lt;/div&gt;" style="edgeLabel;html=1;align=center;verticalAlign=middle;resizable=0;points=[];fontSize=15;fontColor=none;labelBackgroundColor=none;" parent="WIyWlLk6GJQsqaUBKTNV-1" vertex="1" connectable="0">
          <mxGeometry x="1170" y="300" as="geometry" />
        </mxCell>
      </root>
    </mxGraphModel>
  </diagram>
</mxfile>
